 <svg width="57" height="58" viewBox="0 0 57 58" fill="none" xmlns="http://www.w3.org/2000/svg">
        <path fillRule="evenodd" clipRule="evenodd" d="M28.3135 2.53166C28.3135 1.6693 27.6144 0.970215 26.752 0.970215C25.8896 0.970215 25.1906 1.6693 25.1906 2.53166L25.1906 28.3635H1.78215C0.919788 28.3635 0.220703 29.0626 0.220703 29.9249C0.220703 30.7873 0.919788 31.4864 1.78215 31.4864H25.1906L25.1906 56.0013C25.1906 56.8637 25.8896 57.5628 26.752 57.5628C27.6144 57.5628 28.3135 56.8637 28.3135 56.0013L28.3135 31.4864H55.2518C56.1142 31.4864 56.8133 30.7873 56.8133 29.9249C56.8133 29.0626 56.1142 28.3635 55.2518 28.3635H28.3135L28.3135 2.53166Z" fill="#4EBBDB"/>
    </svg>